<?xml version="1.0" encoding="utf-8"?>
<!-- Svg Vector Icons : http://www.onlinewebfonts.com/icon -->
<!DOCTYPE svg PUBLIC "-//W3C//DTD SVG 1.1//EN" "http://www.w3.org/Graphics/SVG/1.1/DTD/svg11.dtd">
<svg version="1.1" xmlns="http://www.w3.org/2000/svg" xmlns:xlink="http://www.w3.org/1999/xlink" x="0px" y="0px" viewBox="0 0 1000 1000" enable-background="new 0 0 1000 1000" xml:space="preserve">
<metadata> Svg Vector Icons : http://www.onlinewebfonts.com/icon </metadata>
<g><path d="M861.7,542.9c-12.8,0-21.3,8.5-21.3,21.3v341.3c0,23.5-19.2,42.7-42.7,42.7H200.4c-23.5,0-42.7-19.2-42.7-42.7V564.3c0-12.8-8.5-21.3-21.3-21.3c-12.8,0-21.3,8.5-21.3,21.3v341.3c0,46.9,38.4,85.3,85.3,85.3h597.3c46.9,0,85.3-38.4,85.3-85.3V564.3C883,553.6,874.5,542.9,861.7,542.9z"/><path d="M985.4,459.7L560.9,33.1c-34.1-32-85.3-32-119.5,0L14.8,459.7c-6.4,8.5-6.4,21.3,0,29.9c8.5,8.5,21.3,8.5,29.9,0L469.2,65.1c17.1-17.1,42.7-17.1,59.7,0l426.7,424.5c8.5,6.4,21.3,6.4,27.7,0C991.8,481.1,991.8,468.3,985.4,459.7z"/></g>
</svg>