<?xml version="1.0" encoding="utf-8"?>
<!DOCTYPE svg PUBLIC "-//W3C//DTD SVG 1.1//EN" "http://www.w3.org/Graphics/SVG/1.1/DTD/svg11.dtd">
<svg version="1.1" xmlns="http://www.w3.org/2000/svg" xmlns:xlink="http://www.w3.org/1999/xlink" x="0px" y="0px" viewBox="0 0 1000 1000" enable-background="new 0 0 1000 1000" xml:space="preserve">
<g><path d="M950.8,863h-38.2v-316h-62.7v316H438.6V531.4h-40.3V863H161.8v-316h-54.9v316H49.2C27.6,863,10,881.2,10,902.8c0,21.6,17.6,39.8,39.2,39.8h901.6c21.7,0,39.2-18.2,39.2-39.8C990,881.2,972.5,863,950.8,863z"/><path d="M483.1,689.6l13.9,13.9l146.8-146.8l-15.6-12.1L483.1,689.6z"/><path d="M800.5,654.6l-15.6-12.1L639.9,787.6l13.9,13.9L800.5,654.6z"/><path d="M752.1,565.8L738.3,552L502.7,787.6l13.9,13.9L752.1,565.8z"/><path d="M289.4,770.6c0,19.4,15.7,35.1,35.1,35.1c19.4,0,35.2-15.7,35.2-35.1c0-12.5-8.4-23.3-16.3-29.6V623.8c7.8-6.2,16.2-17.1,16.2-29.6c0-19.4-15.8-35.1-35.2-35.1c-19.4,0-35,15.7-35,35.1c0,11.8,6.9,22.1,14.8,28.5v119.4C296.3,748.6,289.4,758.9,289.4,770.6z"/><path d="M105.5,504.5c38.4,0,69.7-28.1,72.4-75.1h13.7c2.7,47.1,34,75.1,72.4,75.1c38.4,0,69.7-28.1,72.4-75.1h13.7c2.6,47.1,34,75.1,72.4,75.1c38.4,0,69.7-28.1,72.4-75.1h13.7c2.6,47.1,34,75.1,72.4,75.1c38.4,0,69.7-28.1,72.4-75.1h13.7c2.7,47.1,34,75.1,72.4,75.1c38.4,0,69.7-28.1,72.4-75.1h13.7c2.6,47.1,34,75.1,72.4,75.1c38.4,0,69.7-28.1,72.4-75.1h-2.9v-16.8H27.4v16.8h5.7C35.7,476.5,67.1,504.5,105.5,504.5z"/><path d="M106.9,57.4H889v39.2H106.9V57.4L106.9,57.4z"/><path d="M879.7,120.1H120.3L29.6,389.1h940.8L879.7,120.1z M189.5,373.4h-39.2L209.1,137h39.2L189.5,373.4z M346.3,373.4h-39.2L343.5,137h39.2L346.3,373.4z M517,373.4h-39.2V137H517V373.4z M656.8,373.4L620.4,137h39.2L696,373.4H656.8z M813.6,373.4L754.8,137H794l58.8,236.4H813.6z"/></g>
</svg>
