<?xml version="1.0" encoding="utf-8"?>
<!DOCTYPE svg PUBLIC "-//W3C//DTD SVG 1.1//EN" "http://www.w3.org/Graphics/SVG/1.1/DTD/svg11.dtd">
<svg version="1.1" xmlns="http://www.w3.org/2000/svg" xmlns:xlink="http://www.w3.org/1999/xlink" x="0px" y="0px" viewBox="0 0 1000 1000" enable-background="new 0 0 1000 1000" xml:space="preserve">
<g><path d="M972.5,771.2L972.5,771.2H850v122.5v0c0,7.5-4.8,14.4-12,16.7c-12,3.7-23-5.2-23-16.7l0,0V771.2H692.5h0c-7.5,0-14.4-4.8-16.7-12c-3.7-12,5.2-23,16.7-23l0,0l0,0H815V613.7l0,0l0,0c0-11.5,11-20.3,23-16.7c7.2,2.2,12,9.1,12,16.7v0v122.5h122.5l0,0l0,0c11.5,0,20.3,11,16.7,23C986.9,766.5,980,771.2,972.5,771.2z M727.6,561c-61,0-113.8-34.7-139.9-85.4c-26.2,50.7-79.1,85.4-140.2,85.4c-61.1,0-114-34.7-140.2-85.4c-26.1,50.7-78.9,85.4-139.9,85.4C80.5,561,10,490.6,10,403.7c0-5.9,0.4-11.7,1-17.5h-1l93.1-260.1c0,0,19-37.4,55.8-37.4s542.4,0,577.1,0c34.7,0,55.8,37.4,55.8,37.4L885,386.2h-1c0.6,5.8,1,11.6,1,17.5C885,490.6,814.5,561,727.6,561z M773.3,163.5c0,0-8.7-39.8-45.8-39.8c-37.1,0-524.9,0-560,0s-45.8,39.8-45.8,39.8L45,386.2h1.8C46,392,45,397.8,45,403.7c0,67.7,54.8,122.6,122.4,122.6c67.6,0,122.4-54.9,122.4-122.6c0-0.1,0-0.1,0-0.2c0-9.5,7.5-17.3,17-17.3h1.1c9.5,0,17,7.8,17,17.3c0,0.1,0,0.1,0,0.2c0,67.7,54.9,122.6,122.6,122.6c67.7,0,122.6-54.9,122.7-122.6c0,0,0,0,0,0l0,0c0-0.1,0-0.1,0-0.2c0-9.5,7.5-17.3,17-17.3h1.1c9.5,0,17,7.8,17,17.3c0,0.1,0,0.1,0,0.2c0,67.7,54.8,122.6,122.4,122.6S850,471.5,850,403.7c0-6-0.9-11.7-1.8-17.5h1.8L773.3,163.5z M743.9,351.1H151.1c0,0-18.5-0.7-18.5-17.3c0-16.6,17.4-17.5,17.4-17.5h595c0,0,17.4,0.5,17.4,17.5C762.4,350.8,743.9,351.1,743.9,351.1z M98.9,578.6c18.3,0,16.1,17.6,16.1,17.6v245c0,0-4.3,35,35,35c39.3,0,472.5,0,472.5,0l0,0l0,0c9.7,0,17.5,7.8,17.5,17.5s-7.8,17.5-17.5,17.5l0,0l0,0h-490c0,0-52.5,2-52.5-52.5c0-54.5,0-262.5,0-262.5S80.6,578.6,98.9,578.6z"/></g>
</svg>
